<svg xmlns="http://www.w3.org/2000/svg" xmlns:xlink="http://www.w3.org/1999/xlink" width="1200" zoomAndPan="magnify" viewBox="0 0 900 225" height="300" preserveAspectRatio="xMidYMid meet" version="1.0"><defs><clipPath id="6fcaa8ffa7"><path d="M 419.066406 68 L 895.550781 68 L 895.550781 119.078125 L 419.066406 119.078125 Z M 419.066406 68 " clip-rule="nonzero"/></clipPath></defs><g clip-path="url(#6fcaa8ffa7)"><path fill="#b26cc4" d="M 420.933594 78.945312 C 427.925781 67.6875 446.039062 83.648438 452.4375 91.675781 C 457.933594 82.519531 472.480469 59.890625 480.589844 77.8125 C 482.804688 82.703125 482.453125 87.3125 480.589844 91.609375 L 499.542969 91.609375 C 499.90625 91.460938 500.328125 91.457031 500.761719 91.609375 L 567.121094 91.609375 C 567.1875 91.429688 567.285156 91.273438 567.394531 91.132812 C 567.035156 90.414062 567.117188 89.511719 568.03125 89.039062 C 594.085938 75.578125 622.183594 68.539062 651.496094 68.15625 C 653.269531 68.132812 653.648438 70.390625 652.347656 71.296875 C 638 81.339844 622.15625 88.101562 605.527344 91.609375 L 627.003906 91.609375 C 627.371094 91.460938 627.785156 91.457031 628.222656 91.609375 L 694.589844 91.609375 C 694.644531 91.429688 694.738281 91.273438 694.851562 91.132812 C 694.496094 90.414062 694.578125 89.511719 695.492188 89.039062 C 721.542969 75.578125 749.640625 68.539062 778.953125 68.15625 C 780.730469 68.132812 781.105469 70.390625 779.804688 71.296875 C 765.457031 81.339844 749.613281 88.101562 732.988281 91.609375 L 754.46875 91.609375 C 754.828125 91.460938 755.246094 91.457031 755.683594 91.609375 L 842.441406 91.609375 C 842.488281 91.285156 842.632812 90.964844 842.984375 90.6875 C 851.890625 83.65625 861.816406 78.3125 872.867188 75.542969 C 877.714844 74.324219 891.617188 70.582031 894.933594 76.554688 C 898.066406 82.210938 888.246094 88.882812 884.425781 90.515625 C 882.632812 91.28125 880.71875 91.867188 878.769531 92.375 C 886.175781 94.429688 890.929688 98.148438 887.683594 104.699219 C 884.289062 111.542969 873.769531 111.613281 867.5 110.550781 C 857.472656 108.847656 847.203125 103.574219 840.578125 95.820312 C 840.351562 95.558594 840.253906 95.269531 840.199219 94.984375 L 785.371094 94.984375 C 801.351562 97.804688 816.492188 103.21875 829.054688 114.875 C 830.113281 115.851562 829.308594 117.800781 827.867188 117.753906 C 814.460938 117.308594 800.746094 116.859375 787.890625 112.652344 C 777.3125 109.1875 768.695312 102.332031 759.089844 97.066406 C 759.015625 97.054688 758.941406 97.039062 758.867188 97.023438 C 758.425781 96.945312 758.144531 96.722656 757.945312 96.457031 C 757.046875 95.976562 756.128906 95.527344 755.207031 95.082031 C 755.179688 95.082031 755.164062 95.066406 755.140625 95.058594 C 755.097656 95.035156 755.046875 95.003906 754.996094 94.984375 L 657.902344 94.984375 C 673.890625 97.804688 689.03125 103.21875 701.59375 114.875 C 702.65625 115.855469 701.847656 117.800781 700.410156 117.753906 C 687 117.308594 673.289062 116.863281 660.433594 112.652344 C 649.855469 109.1875 641.234375 102.332031 631.628906 97.066406 C 631.550781 97.054688 631.484375 97.039062 631.40625 97.023438 C 630.964844 96.945312 630.679688 96.722656 630.484375 96.457031 C 629.578125 95.980469 628.671875 95.527344 627.746094 95.082031 C 627.722656 95.082031 627.703125 95.070312 627.683594 95.058594 C 627.628906 95.035156 627.589844 95.003906 627.539062 94.984375 L 530.445312 94.984375 C 546.4375 97.804688 561.570312 103.21875 574.140625 114.875 C 575.195312 115.855469 574.390625 117.800781 572.949219 117.753906 C 559.539062 117.308594 545.828125 116.863281 532.972656 112.652344 C 522.394531 109.1875 513.773438 102.332031 504.167969 97.066406 C 504.09375 97.054688 504.019531 97.039062 503.945312 97.023438 C 503.507812 96.945312 503.21875 96.722656 503.023438 96.457031 C 502.121094 95.980469 501.203125 95.53125 500.285156 95.089844 C 500.265625 95.082031 500.242188 95.070312 500.222656 95.058594 C 500.171875 95.035156 500.125 95.003906 500.078125 94.984375 L 478.757812 94.984375 C 471.914062 105.636719 456.335938 114.003906 448.480469 119.039062 C 447.890625 119.417969 447.328125 119.34375 446.886719 119.070312 C 446.3125 119.332031 445.621094 119.332031 445.023438 118.824219 C 437.039062 112.042969 428.726562 104.890625 423.824219 95.445312 C 421.683594 91.34375 418.089844 83.523438 420.933594 78.945312 M 545 107.710938 C 545 107.683594 545.019531 107.667969 545.019531 107.640625 C 544.269531 107.386719 543.519531 107.15625 542.765625 106.914062 C 542.757812 107.003906 542.746094 107.109375 542.726562 107.203125 C 543.484375 107.375 544.238281 107.550781 545 107.710938 Z M 518.734375 100.171875 C 518.527344 100.117188 518.324219 100.066406 518.117188 100.019531 C 518.351562 100.089844 518.585938 100.171875 518.820312 100.238281 C 518.785156 100.222656 518.765625 100.191406 518.734375 100.171875 Z M 599.796875 82.367188 C 604.605469 81.308594 609.410156 80.25 614.21875 79.1875 C 613.839844 79.035156 613.5625 78.769531 613.371094 78.417969 C 608.820312 79.582031 604.292969 80.929688 599.796875 82.367188 Z M 581.703125 86.351562 C 581.703125 86.351562 581.707031 86.351562 581.695312 86.351562 C 581.703125 86.351562 581.707031 86.351562 581.703125 86.351562 Z M 645.140625 71.898438 C 645.203125 71.859375 645.269531 71.820312 645.328125 71.785156 C 645.242188 71.789062 645.15625 71.789062 645.078125 71.796875 C 645.097656 71.828125 645.128906 71.855469 645.140625 71.898438 Z M 580.652344 90.03125 C 579.261719 90.328125 577.875 90.636719 576.488281 90.941406 C 578.121094 90.972656 579.742188 91.011719 581.359375 90.984375 C 580.996094 90.746094 580.753906 90.433594 580.652344 90.03125 Z M 672.460938 107.710938 C 672.460938 107.683594 672.480469 107.667969 672.480469 107.640625 C 671.726562 107.386719 670.976562 107.15625 670.226562 106.914062 C 670.21875 107.003906 670.207031 107.109375 670.195312 107.203125 C 670.945312 107.375 671.703125 107.550781 672.460938 107.710938 Z M 646.199219 100.171875 C 645.992188 100.117188 645.785156 100.066406 645.578125 100.019531 C 645.808594 100.089844 646.046875 100.171875 646.277344 100.238281 C 646.246094 100.222656 646.226562 100.191406 646.199219 100.171875 Z M 727.253906 82.367188 C 732.0625 81.308594 736.871094 80.25 741.679688 79.1875 C 741.300781 79.035156 741.019531 78.769531 740.832031 78.417969 C 736.277344 79.582031 731.757812 80.929688 727.253906 82.367188 Z M 709.164062 86.351562 C 709.164062 86.351562 709.164062 86.351562 709.160156 86.351562 C 709.164062 86.351562 709.164062 86.351562 709.164062 86.351562 Z M 772.605469 71.898438 C 772.664062 71.859375 772.726562 71.820312 772.785156 71.785156 C 772.703125 71.789062 772.621094 71.789062 772.539062 71.796875 C 772.554688 71.828125 772.589844 71.855469 772.605469 71.898438 Z M 708.113281 90.03125 C 706.71875 90.328125 705.335938 90.636719 703.949219 90.941406 C 705.578125 90.972656 707.195312 91.011719 708.820312 90.984375 C 708.457031 90.746094 708.214844 90.433594 708.113281 90.03125 Z M 799.917969 107.710938 C 799.917969 107.683594 799.941406 107.667969 799.941406 107.640625 C 799.195312 107.386719 798.4375 107.15625 797.6875 106.914062 C 797.683594 107.003906 797.671875 107.109375 797.652344 107.203125 C 798.40625 107.375 799.164062 107.550781 799.917969 107.710938 Z M 773.65625 100.171875 C 773.453125 100.117188 773.25 100.066406 773.039062 100.019531 C 773.273438 100.089844 773.503906 100.171875 773.734375 100.238281 C 773.710938 100.222656 773.683594 100.191406 773.65625 100.171875 Z M 867.464844 90.464844 C 871.488281 90.097656 876.347656 89.558594 880.363281 88.355469 C 882.023438 87.695312 883.699219 87.03125 885.367188 86.371094 C 888.730469 79.464844 888.34375 76.367188 884.207031 77.085938 C 878.578125 76.023438 869.773438 79.75 864.597656 81.804688 C 859.035156 84.019531 853.980469 86.855469 849.167969 90.257812 C 853.671875 90.003906 860.511719 89.902344 867.257812 90.476562 C 867.324219 90.46875 867.390625 90.476562 867.464844 90.464844 Z M 855.160156 102.765625 C 860.507812 105.429688 870.378906 109.765625 876.386719 107.328125 C 879.847656 107.710938 880.839844 105.820312 879.34375 101.644531 C 881.324219 97.734375 880.679688 95.800781 877.4375 95.835938 C 875.398438 94.410156 870.265625 94.558594 867.933594 94.234375 C 867.722656 94.199219 867.523438 94.1875 867.324219 94.15625 C 863.507812 94.417969 859.675781 94.429688 855.953125 94.316406 L 855.953125 94.984375 L 844.433594 94.984375 C 847.542969 98.195312 851.101562 100.742188 855.160156 102.765625 Z M 788.785156 109.394531 C 795.164062 111.511719 801.785156 112.648438 808.464844 113.3125 C 804.730469 112.613281 801.011719 111.835938 797.296875 110.996094 C 797.035156 111.101562 796.738281 111.167969 796.402344 111.125 C 790.714844 110.355469 785.535156 108.164062 780.484375 105.609375 C 780.195312 105.539062 779.917969 105.457031 779.636719 105.378906 C 782.558594 106.9375 785.570312 108.335938 788.785156 109.394531 Z M 661.328125 109.394531 C 667.710938 111.511719 674.320312 112.648438 681.003906 113.3125 C 677.273438 112.613281 673.550781 111.835938 669.839844 110.996094 C 669.570312 111.101562 669.285156 111.167969 668.941406 111.125 C 663.253906 110.355469 658.078125 108.164062 653.023438 105.609375 C 652.738281 105.539062 652.460938 105.457031 652.175781 105.378906 C 655.09375 106.9375 658.109375 108.335938 661.328125 109.394531 Z M 533.863281 109.394531 C 540.25 111.511719 546.859375 112.648438 553.546875 113.3125 C 549.8125 112.613281 546.089844 111.835938 542.382812 110.996094 C 542.109375 111.101562 541.824219 111.167969 541.484375 111.125 C 535.785156 110.355469 530.609375 108.164062 525.5625 105.609375 C 525.28125 105.539062 524.996094 105.457031 524.714844 105.378906 C 527.632812 106.9375 530.65625 108.335938 533.863281 109.394531 Z M 427.574219 95.210938 C 432.222656 103.550781 439.746094 109.925781 446.941406 116.03125 C 454.996094 110.875 464.667969 105.960938 471.171875 98.824219 C 473.75 96.40625 475.546875 93.546875 476.566406 90.242188 C 480.511719 83.464844 475.769531 80.617188 462.347656 81.707031 C 459.023438 83.980469 456.113281 92.082031 454.039062 95.5625 C 453.378906 96.675781 451.792969 96.640625 451.125 95.5625 C 447.597656 89.894531 443.296875 85.339844 437.25 82.292969 C 431.4375 77.910156 427.148438 79.777344 424.367188 87.886719 C 425.109375 90.488281 426.175781 92.929688 427.574219 95.210938 Z M 427.574219 95.210938 " fill-opacity="1" fill-rule="evenodd"/></g><path fill="#b26cc4" d="M 4.15625 76.550781 C 6.84375 70.460938 21.910156 74.460938 26.226562 75.542969 C 37.28125 78.3125 47.199219 83.652344 56.113281 90.6875 C 56.457031 90.964844 56.605469 91.285156 56.648438 91.609375 L 143.410156 91.609375 C 143.84375 91.457031 144.265625 91.464844 144.628906 91.609375 L 166.109375 91.609375 C 149.476562 88.101562 133.640625 81.339844 119.289062 71.296875 C 117.988281 70.386719 118.359375 68.136719 120.140625 68.15625 C 149.449219 68.539062 177.554688 75.578125 203.601562 89.039062 C 204.515625 89.511719 204.597656 90.414062 204.238281 91.132812 C 204.347656 91.273438 204.449219 91.433594 204.503906 91.609375 L 270.871094 91.609375 C 271.304688 91.457031 271.722656 91.464844 272.085938 91.609375 L 293.566406 91.609375 C 276.9375 88.101562 261.105469 81.339844 246.75 71.296875 C 245.449219 70.386719 245.820312 68.136719 247.59375 68.15625 C 276.914062 68.539062 305.011719 75.578125 331.0625 89.039062 C 331.984375 89.511719 332.054688 90.414062 331.699219 91.132812 C 331.8125 91.273438 331.902344 91.433594 331.964844 91.609375 L 398.332031 91.609375 C 398.769531 91.457031 399.191406 91.464844 399.546875 91.609375 L 421.84375 91.609375 L 421.84375 94.984375 L 399.011719 94.984375 C 398.96875 95.003906 398.917969 95.03125 398.875 95.050781 C 398.851562 95.066406 398.828125 95.078125 398.808594 95.085938 C 397.886719 95.527344 396.96875 95.976562 396.066406 96.453125 C 395.875 96.722656 395.589844 96.945312 395.140625 97.023438 C 395.070312 97.039062 395 97.058594 394.921875 97.066406 C 385.320312 102.332031 376.707031 109.183594 366.125 112.648438 C 353.269531 116.859375 339.546875 117.304688 326.148438 117.75 C 324.707031 117.800781 323.890625 115.859375 324.957031 114.871094 C 337.523438 103.214844 352.667969 97.804688 368.65625 94.984375 L 271.550781 94.984375 C 271.507812 95.003906 271.460938 95.03125 271.414062 95.050781 C 271.394531 95.066406 271.367188 95.078125 271.347656 95.085938 C 270.425781 95.527344 269.507812 95.976562 268.609375 96.457031 C 268.414062 96.722656 268.125 96.945312 267.6875 97.023438 C 267.605469 97.039062 267.542969 97.058594 267.460938 97.066406 C 257.863281 102.332031 249.242188 109.183594 238.664062 112.648438 C 225.808594 116.859375 212.085938 117.304688 198.683594 117.75 C 197.246094 117.800781 196.433594 115.859375 197.496094 114.871094 C 210.0625 103.214844 225.210938 97.800781 241.199219 94.984375 L 144.09375 94.984375 C 144.046875 95.003906 143.996094 95.027344 143.953125 95.050781 C 143.933594 95.066406 143.914062 95.078125 143.886719 95.085938 C 142.960938 95.527344 142.046875 95.976562 141.148438 96.457031 C 140.953125 96.722656 140.675781 96.945312 140.226562 97.019531 C 140.148438 97.039062 140.082031 97.058594 140.003906 97.066406 C 130.394531 102.332031 121.785156 109.183594 111.203125 112.648438 C 98.347656 116.859375 84.628906 117.304688 71.226562 117.75 C 69.789062 117.800781 68.972656 115.859375 70.035156 114.871094 C 82.601562 103.214844 97.742188 97.800781 113.730469 94.980469 L 58.886719 94.980469 C 58.835938 95.269531 58.746094 95.554688 58.519531 95.816406 C 51.871094 103.589844 41.640625 108.816406 31.59375 110.546875 C 25.21875 111.648438 14.894531 111.511719 11.40625 104.695312 C 8.050781 98.144531 12.867188 94.429688 20.351562 92.382812 C 18.386719 91.867188 16.46875 91.285156 14.664062 90.511719 C 10.378906 88.675781 1.535156 82.503906 4.15625 76.550781 M 101.441406 107.203125 C 101.421875 107.105469 101.410156 107.011719 101.410156 106.914062 C 100.65625 107.15625 99.902344 107.386719 99.152344 107.640625 C 99.152344 107.664062 99.175781 107.6875 99.175781 107.710938 C 99.9375 107.550781 100.691406 107.375 101.441406 107.203125 Z M 125.433594 100.171875 C 125.40625 100.191406 125.386719 100.222656 125.355469 100.238281 C 125.59375 100.171875 125.828125 100.089844 126.054688 100.019531 C 125.847656 100.066406 125.640625 100.117188 125.433594 100.171875 Z M 158.257812 78.417969 C 158.078125 78.765625 157.792969 79.042969 157.417969 79.191406 C 162.222656 80.25 167.03125 81.308594 171.832031 82.367188 C 167.335938 80.925781 162.8125 79.582031 158.257812 78.417969 Z M 190.988281 90.03125 C 190.878906 90.4375 190.640625 90.746094 190.277344 90.984375 C 191.894531 91.007812 193.519531 90.972656 195.148438 90.941406 C 193.757812 90.636719 192.371094 90.332031 190.988281 90.03125 Z M 126.554688 71.796875 C 126.476562 71.789062 126.394531 71.789062 126.304688 71.785156 C 126.367188 71.820312 126.429688 71.859375 126.488281 71.898438 C 126.5 71.855469 126.539062 71.828125 126.554688 71.796875 Z M 189.925781 86.351562 C 189.933594 86.351562 189.933594 86.351562 189.933594 86.351562 C 189.933594 86.351562 189.933594 86.351562 189.929688 86.351562 Z M 228.902344 107.203125 C 228.882812 107.105469 228.875 107.011719 228.875 106.914062 C 228.117188 107.15625 227.363281 107.386719 226.613281 107.640625 C 226.609375 107.664062 226.636719 107.6875 226.636719 107.710938 C 227.394531 107.550781 228.148438 107.375 228.902344 107.203125 Z M 252.898438 100.171875 C 252.871094 100.191406 252.847656 100.222656 252.816406 100.238281 C 253.050781 100.171875 253.289062 100.089844 253.523438 100.019531 C 253.308594 100.066406 253.109375 100.117188 252.898438 100.171875 Z M 285.726562 78.417969 C 285.539062 78.765625 285.253906 79.042969 284.878906 79.191406 C 289.679688 80.25 294.492188 81.308594 299.292969 82.367188 C 294.800781 80.925781 290.285156 79.582031 285.726562 78.417969 Z M 318.441406 90.03125 C 318.34375 90.4375 318.097656 90.746094 317.734375 90.984375 C 319.351562 91.007812 320.976562 90.972656 322.609375 90.941406 C 321.214844 90.636719 319.832031 90.332031 318.441406 90.03125 Z M 254.007812 71.796875 C 253.9375 71.789062 253.855469 71.789062 253.765625 71.785156 C 253.824219 71.820312 253.890625 71.859375 253.949219 71.898438 C 253.964844 71.855469 254 71.828125 254.007812 71.796875 Z M 317.386719 86.351562 L 317.394531 86.351562 C 317.390625 86.351562 317.386719 86.351562 317.386719 86.351562 Z M 356.363281 107.203125 C 356.34375 107.105469 356.332031 107.011719 356.332031 106.914062 C 355.574219 107.15625 354.820312 107.386719 354.074219 107.640625 C 354.070312 107.664062 354.09375 107.6875 354.09375 107.710938 C 354.855469 107.550781 355.605469 107.375 356.363281 107.203125 Z M 380.359375 100.171875 C 380.324219 100.191406 380.308594 100.222656 380.273438 100.238281 C 380.511719 100.171875 380.746094 100.089844 380.984375 100.019531 C 380.769531 100.066406 380.5625 100.117188 380.359375 100.171875 Z M 374.195312 105.429688 C 373.972656 105.492188 373.75 105.554688 373.527344 105.609375 C 368.476562 108.164062 363.304688 110.359375 357.609375 111.125 C 357.277344 111.167969 356.980469 111.105469 356.714844 110.996094 C 352.886719 111.867188 349.035156 112.664062 345.171875 113.382812 C 352 112.738281 358.761719 111.601562 365.230469 109.398438 C 368.363281 108.328125 371.328125 106.953125 374.195312 105.429688 Z M 246.734375 105.429688 C 246.511719 105.492188 246.289062 105.554688 246.066406 105.609375 C 241.015625 108.164062 235.84375 110.359375 230.152344 111.125 C 229.808594 111.167969 229.519531 111.105469 229.253906 110.996094 C 225.421875 111.867188 221.574219 112.664062 217.710938 113.382812 C 224.539062 112.738281 231.296875 111.601562 237.769531 109.398438 C 240.90625 108.328125 243.871094 106.953125 246.734375 105.429688 Z M 119.273438 105.429688 C 119.050781 105.492188 118.832031 105.554688 118.609375 105.609375 C 113.5625 108.164062 108.382812 110.359375 102.691406 111.125 C 102.351562 111.167969 102.058594 111.105469 101.792969 110.996094 C 97.960938 111.867188 94.117188 112.664062 90.253906 113.382812 C 97.082031 112.738281 103.835938 111.601562 110.304688 109.398438 C 113.449219 108.328125 116.410156 106.953125 119.273438 105.429688 Z M 21.660156 95.835938 C 16.441406 98.101562 16.886719 105.917969 22.707031 107.328125 C 33.304688 109.882812 47.070312 102.753906 54.628906 94.984375 L 43.140625 94.984375 L 43.140625 94.316406 C 39.199219 94.4375 35.148438 94.410156 31.125 94.101562 C 27.9375 94.429688 23.753906 94.925781 21.660156 95.835938 Z M 28.054688 90.015625 C 29.523438 90.203125 30.988281 90.332031 32.460938 90.449219 C 39.035156 89.933594 45.640625 90.023438 49.988281 90.269531 C 46.011719 87.4375 41.832031 84.957031 37.351562 82.941406 C 33.789062 81.339844 18.636719 74.804688 14.882812 77.085938 C 12.316406 76.449219 11.875 77.984375 13.558594 81.683594 C 12.285156 86.027344 14.007812 88.253906 18.734375 88.355469 C 21.75 89.273438 24.941406 89.625 28.054688 90.015625 Z M 28.054688 90.015625 " fill-opacity="1" fill-rule="evenodd"/><path stroke-linecap="butt" transform="matrix(0.657804, 0, 0, 0.657804, 365.187143, 98.896391)" fill="none" stroke-linejoin="miter" d="M 0.000542435 1.998387 L 7.346245 1.998387 " stroke="#869676" stroke-width="4" stroke-opacity="1" stroke-miterlimit="4"/></svg>